HIERARCHY
ROOT hip
{
	OFFSET 0.000000 0.000000 0.000000 
	CHANNELS 6 Xposition Yposition Zposition Xrotation Zrotation Yrotation
	JOINT abdomen
	{
		OFFSET 0.000000 3.402643 0.000000 
		CHANNELS 3 Xrotation Zrotation Yrotation
		JOINT chest
		{
			OFFSET 0.000000 8.438565 -0.680529 
			CHANNELS 3 Xrotation Zrotation Yrotation
			JOINT neck
			{
				OFFSET 0.000000 10.207942 -0.272212 
				CHANNELS 3 Xrotation Zrotation Yrotation
				JOINT head
				{
					OFFSET 0.000000 3.130431 0.000000 
					CHANNELS 3 Xrotation Zrotation Yrotation
					End Site
					{
						OFFSET 0.000000 3.130435 0.000000 
					}
				}
			}
			JOINT lCollar
			{
				OFFSET 3.470700 6.669187 -0.816635 
				CHANNELS 3 Yrotation Zrotation Xrotation
				JOINT lShldr
				{
					OFFSET 3.198488 0.000000 0.000000 
					CHANNELS 3 Zrotation Yrotation Xrotation
					JOINT lForeArm
					{
						OFFSET 10.139888 0.000000 0.000000 
						CHANNELS 3 Yrotation Zrotation Xrotation
						JOINT lHand
						{
							OFFSET 8.370511 0.000000 0.000000 
							CHANNELS 3 Zrotation Yrotation Xrotation
							End Site
							{
								OFFSET 4.083176 0.000000 0.000000 
							}
						}
					}
				}
			}
			JOINT rCollar
			{
				OFFSET -3.470700 6.669187 -0.816635 
				CHANNELS 3 Yrotation Zrotation Xrotation
				JOINT rShldr
				{
					OFFSET -3.198488 0.000000 0.000000 
					CHANNELS 3 Zrotation Yrotation Xrotation
					JOINT rForeArm
					{
						OFFSET -10.139888 0.000000 0.000000 
						CHANNELS 3 Yrotation Zrotation Xrotation
						JOINT rHand
						{
							OFFSET -8.370511 0.000000 0.000000 
							CHANNELS 3 Zrotation Yrotation Xrotation
							End Site
							{
								OFFSET -4.083176 0.000000 0.000000 
							}
						}
					}
				}
			}
		}
	}
	JOINT lThigh
	{
		OFFSET 5.308129 -1.633274 1.361059 
		CHANNELS 3 Xrotation Zrotation Yrotation
		JOINT lShin
		{
			OFFSET -2.041588 -20.007561 0.000000 
			CHANNELS 3 Xrotation Zrotation Yrotation
			JOINT lFoot
			{
				OFFSET 0.000000 -19.190928 -1.224953 
				CHANNELS 3 Xrotation Yrotation Zrotation
				End Site
				{
					OFFSET 0.000000 -2.449906 4.627600 
				}
			}
		}
	}
	JOINT rThigh
	{
		OFFSET -5.308129 -1.633274 1.361059 
		CHANNELS 3 Xrotation Zrotation Yrotation
		JOINT rShin
		{
			OFFSET 2.041588 -20.007561 0.000000 
			CHANNELS 3 Xrotation Zrotation Yrotation
			JOINT rFoot
			{
				OFFSET 0.000000 -19.190928 -1.224953 
				CHANNELS 3 Xrotation Yrotation Zrotation
				End Site
				{
					OFFSET 0.000000 -2.449906 4.627600 
				}
			}
		}
	}
}
MOTION
Frames: 17
Frame Time: 0.033333
-0.197922 46.100632 -52.955982 2.053034 -2.683825 3.018709 21.015339 -0.074622 -0.352972 -20.839844 0.000000 0.000000 6.103268 3.440010 -1.528372 -2.520832 -1.255077 0.218355 -4.754609 -0.109184 -0.002653 -60.211922 -6.758423 30.358538 -2.633049 0.065205 -6.800381 1.253835 -3.815798 0.034665 4.754609 0.109184 -0.002672 66.210770 2.396638 -17.579309 2.768354 -0.486801 21.224392 -2.768354 3.357148 -0.059849 2.791080 12.250258 3.042421 -5.514442 -3.775753 5.998997 0.685195 0.162224 -3.899424 1.395450 -6.080402 -5.262233 -3.346215 3.405112 -10.181971 0.775306 -0.267861 3.411254 
-0.220764 46.093525 -52.946327 2.288006 -2.859051 2.766330 21.093546 -0.088423 -0.316714 -20.839844 0.000000 0.000000 5.855788 3.829977 -1.732634 -2.520832 -1.255077 0.218355 -4.754609 -0.109184 -0.002653 -67.095467 -7.352462 35.999561 -2.639769 0.095419 -4.896300 0.278819 -2.741916 0.006208 4.754609 0.109184 -0.002672 72.463669 3.094925 -16.091988 2.800597 -0.513478 23.939243 -2.092839 2.272111 -0.050101 2.528184 12.527966 2.324342 -5.498279 -3.728937 6.962314 0.626660 0.206022 -4.258960 1.004988 -5.894905 -4.949181 -3.189205 3.404510 -10.327374 0.763436 -0.269343 3.296223 
-0.259358 46.105202 -52.961056 2.542185 -2.839005 2.852190 21.132555 -0.087061 -0.347739 -20.839844 0.000000 0.000000 5.291917 3.696187 -1.995255 -2.520832 -1.255077 0.218355 -4.754609 -0.109184 -0.002653 -74.576141 -7.755525 44.566074 -2.638247 0.116034 -3.548802 0.386954 -1.608779 -0.004841 4.754609 0.109184 -0.002672 78.074463 3.429960 -14.385997 2.843606 -0.566629 28.294674 -0.325128 1.119458 -0.062266 2.089467 12.630889 0.612881 -5.477758 -3.642289 8.546926 0.713574 0.176885 -4.154119 0.722152 -5.895212 -4.550398 -3.205905 3.373391 -10.864441 0.823303 -0.257258 3.341845 
-0.270019 46.090473 -52.908760 2.366128 -2.810106 2.783984 21.161741 -0.078760 -0.396996 -20.839844 0.000000 0.000000 4.831542 3.413968 -1.998820 -2.520832 -1.255077 0.218355 -4.754609 -0.109184 -0.002653 -80.810478 -6.080870 52.178078 -2.646412 0.148465 -0.804835 1.137128 -3.591332 0.026680 4.754609 0.109184 -0.002672 82.719421 3.184840 -12.490556 2.931129 -0.661460 36.292709 1.090683 0.533899 -0.083333 2.440731 12.575265 1.513113 -5.485953 -3.679123 7.885722 0.606829 0.187983 -4.203390 0.897555 -5.935983 -3.634330 -3.188808 3.336323 -11.633044 0.729255 -0.246285 3.273804 
-0.252234 46.121449 -52.917919 2.502826 -2.722014 2.449094 21.161652 -0.022802 -0.406749 -20.839844 0.000000 0.000000 4.330470 3.185575 -1.671839 -2.520832 -1.255077 0.218355 -4.754609 -0.109184 -0.002653 -83.928406 -6.042609 56.305504 -2.666879 0.212065 2.807981 1.469010 -6.209290 0.051665 4.754609 0.109184 -0.002672 86.024391 2.950444 -10.250734 3.048894 -0.746958 45.716972 0.535070 2.798764 -0.021395 2.361231 12.403948 1.832121 -5.484900 -3.678575 7.914973 0.567441 0.161375 -3.932362 0.692645 -6.084216 -2.949249 -3.310411 3.329663 -12.011983 0.918953 -0.261316 3.568588 
-0.238532 46.114342 -52.905720 2.708519 -2.887401 1.972518 21.220417 -0.014120 -0.319754 -20.839844 0.000000 0.000000 4.032519 2.990192 -1.441041 -2.520832 -1.255077 0.218355 -4.754609 -0.109184 -0.002653 -85.937202 -6.048553 58.095409 -2.678940 0.244999 5.092927 1.887916 -10.439979 0.065336 4.754609 0.109184 -0.002672 88.007431 3.025098 -8.830195 3.182480 -0.812004 55.200127 -0.979555 4.401046 -0.012526 2.283506 12.544322 2.256775 -5.486910 -3.669675 7.992580 0.613113 0.170000 -3.928593 0.175933 -6.043160 -0.179398 -3.155777 3.199449 -14.330253 1.037809 -0.267787 4.012601 
-0.197409 46.128052 -52.867126 2.884022 -2.682150 1.700556 21.230185 -0.014112 -0.319774 -20.839844 0.000000 0.000000 3.576304 2.582983 -1.283793 -2.520832 -1.255077 0.218355 -4.754609 -0.109184 -0.002653 -87.060051 -6.425490 60.453350 -4.924455 0.253532 5.738702 2.709866 -11.106040 0.020006 4.754609 0.109184 -0.002672 88.000099 3.363618 -7.150123 3.295518 -0.842793 62.740170 -3.395556 4.100258 -0.072084 2.166240 12.296857 1.657250 -5.484781 -3.629809 8.810503 0.589420 0.159969 -3.838817 -0.077951 -6.318115 1.236539 -3.231982 3.145049 -15.641341 1.082896 -0.246399 3.333132 
-0.154766 46.115349 -52.843788 2.951366 -2.184601 1.625388 21.249714 -0.074334 -0.353718 -20.839844 0.000000 0.000000 3.644051 2.065084 -1.285965 -2.520832 -1.255077 0.218355 -4.754609 -0.109184 -0.002653 -87.278923 -7.241810 62.351295 -8.070989 0.260578 5.985234 3.155124 -11.068036 -0.011992 4.754609 0.109184 -0.002672 86.985352 4.143280 -6.419843 3.310684 -0.848103 63.648571 -2.631202 3.151852 -0.057485 2.146568 11.711525 1.508581 -5.460667 -3.618108 8.984115 0.523910 0.177462 -3.874708 0.351121 -6.781431 -2.421033 -3.700588 3.329428 -11.784868 1.319025 -0.239861 3.427060 
-0.152733 46.109257 -52.816368 3.117481 -2.174515 1.385217 21.210758 -0.100857 -0.311493 -20.839844 0.000000 0.000000 3.659216 2.260387 -1.058164 -2.520832 -1.255077 0.218355 -4.754609 -0.109184 -0.002653 -86.853203 -8.260505 63.625057 -9.830948 0.297781 8.648368 3.856233 -10.903502 -0.056220 4.754609 0.109184 -0.002672 86.173897 4.929134 -6.061384 3.258009 -0.827788 60.171494 -0.744656 3.765989 -0.015877 2.098431 11.684720 1.989412 -5.475294 -3.639605 8.634615 0.577429 0.182378 -4.039068 0.194581 -6.791166 -2.610651 -3.728723 3.348193 -11.416627 1.189269 -0.268662 3.656915 
-0.131429 46.133125 -52.767113 3.254514 -2.271725 1.286587 21.152317 -0.161682 -0.261506 -20.839844 0.000000 0.000000 3.785660 2.378882 -1.087327 -2.520832 -1.255077 0.218355 -4.754609 -0.109184 -0.002653 -86.531799 -8.992722 65.173798 -10.766240 0.290926 8.216390 3.020639 -10.061093 0.002045 4.754609 0.109184 -0.002672 85.250282 5.320438 -6.738200 3.236444 -0.818197 58.647919 0.634616 4.321568 0.023591 2.040609 11.738091 2.466671 -5.470875 -3.656905 8.254699 0.601900 0.162051 -3.733664 0.204586 -6.613486 -4.686812 -3.669154 3.454494 -9.229973 1.019664 -0.260035 3.526452 
-0.131429 46.131596 -52.704685 3.205456 -2.184081 1.488757 21.132713 -0.123963 -0.278246 -20.839844 0.000000 0.000000 4.134494 2.442819 -1.213081 -2.520832 -1.255077 0.218355 -4.754609 -0.109184 -0.002653 -86.004951 -10.037356 66.315964 -10.921856 0.309469 9.168053 3.898447 -10.053058 -0.048055 4.754609 0.109184 -0.002672 84.386490 5.630696 -6.755794 3.168650 -0.804412 54.194237 1.820302 4.984146 0.077442 2.117749 11.616020 2.290967 -5.472789 -3.648119 8.332318 0.523155 0.152476 -3.654701 0.272683 -6.798994 -2.935406 -3.694413 3.355031 -11.219510 1.128415 -0.249787 3.497984 
-0.134965 46.112820 -52.632092 3.342384 -2.232528 1.685774 21.113146 -0.117041 -0.296431 -20.839844 0.000000 0.000000 4.091455 2.685564 -1.402390 -2.520832 -1.255077 0.218355 -4.754609 -0.109184 -0.002653 -85.195480 -11.204870 66.084061 -10.757681 0.323535 10.091098 3.364568 -9.778416 -0.017637 4.754609 0.109184 -0.002672 83.575104 5.812718 -7.763998 3.177897 -0.799020 54.633804 2.886154 4.641515 0.094314 1.922564 11.742537 1.226883 -5.468633 -3.611923 9.140142 0.540914 0.162592 -3.442233 0.341035 -6.677563 -4.620755 -3.677800 3.434294 -9.669152 1.058229 -0.263685 3.503930 
-0.140552 46.128555 -52.530029 3.284037 -2.359405 1.866321 21.142433 -0.122636 -0.309183 -20.839844 0.000000 0.000000 3.822739 2.665663 -1.615447 -2.520832 -1.255077 0.218355 -4.754609 -0.109184 -0.002653 -84.462303 -11.836104 65.691101 -10.231090 0.314337 9.475638 4.029409 -9.065978 -0.043001 4.754609 0.109184 -0.002672 83.154221 5.471827 -8.178481 3.184147 -0.813158 55.405338 2.101798 4.369310 0.055281 2.107984 11.833026 1.972481 -5.477912 -3.649354 8.449686 0.507502 0.163111 -3.671732 0.525835 -6.486990 -5.088037 -3.576768 3.431877 -9.632908 0.835591 -0.270155 3.534839 
-0.158832 46.141754 -52.473686 3.381659 -2.310427 1.953076 21.122814 -0.123512 -0.361784 -20.839844 0.000000 0.000000 3.869459 2.777417 -1.714347 -2.520832 -1.255077 0.218355 -4.754609 -0.109184 -0.002653 -83.572311 -12.546516 64.460533 -9.974037 0.292186 8.169294 3.539310 -9.299858 -0.025030 4.754609 0.109184 -0.002672 82.923813 5.520148 -8.333805 3.170484 -0.805730 54.418835 2.939737 3.266158 0.025236 2.029649 11.811745 1.671375 -5.474529 -3.639347 8.654121 0.538781 0.165402 -3.670563 0.536133 -6.527627 -5.356675 -3.642227 3.455804 -9.218274 0.888982 -0.284958 3.820459 
-0.204021 46.131596 -52.375191 3.450217 -2.368751 1.761243 21.142263 -0.052775 -0.355458 -20.839844 0.000000 0.000000 3.966313 2.573084 -1.735844 -2.520832 -1.255077 0.218355 -4.754609 -0.109184 -0.002653 -82.514069 -12.923970 64.058090 -9.398662 0.267839 6.279659 3.133086 -8.986175 0.003942 4.754609 0.109184 -0.002672 82.740417 5.128624 -7.492068 3.177582 -0.798796 54.594742 3.651787 2.826989 0.008900 2.147182 11.931226 2.061153 -5.484319 -3.648996 8.323329 0.499771 0.168162 -3.815915 0.496795 -6.378362 -5.405732 -3.533406 3.464701 -9.113533 0.770274 -0.258524 3.175140 
-0.250218 46.127537 -52.299046 3.381848 -2.388417 1.518774 21.171638 -0.057533 -0.315508 -20.839844 0.000000 0.000000 3.787080 2.365347 -1.450376 -2.520832 -1.255077 0.218355 -4.754609 -0.109184 -0.002653 -81.379662 -13.187686 62.299671 -9.156501 0.273016 7.081071 2.898594 -9.054490 0.006377 4.754609 0.109184 -0.002672 82.735237 4.612506 -6.778893 3.178685 -0.799578 54.731453 4.648103 2.690007 0.013739 2.352958 12.019258 1.590686 -5.461154 -3.608577 9.100735 0.364520 0.172674 -3.690554 0.604096 -6.270247 -5.514799 -3.498846 3.480492 -8.721493 0.739277 -0.244355 3.024391 
-0.273060 46.132107 -52.195480 3.479563 -2.378425 1.427408 21.152185 -0.080558 -0.282472 -20.839844 0.000000 0.000000 3.845483 2.484288 -1.040014 -2.520832 -1.255077 0.218355 -4.754609 -0.109184 -0.002653 -80.760353 -12.960815 62.070957 -8.502843 0.251009 5.470571 3.669124 -9.651889 -0.031775 4.754609 0.109184 -0.002672 82.642487 3.899726 -6.780711 3.195103 -0.808804 56.079266 4.498991 4.406236 0.115071 2.371753 12.048049 1.544476 -5.467228 -3.611218 9.179142 0.281430 0.180633 -3.855380 0.663933 -6.268700 -5.947106 -3.524798 3.514135 -8.128783 0.627085 -0.280663 3.501611 
